<?xml version="1.0" encoding="UTF-8" standalone="no"?>
<!-- Created with Inkscape (http://www.inkscape.org/) -->

<svg
   xmlns:dc="http://purl.org/dc/elements/1.1/"
   xmlns:cc="http://creativecommons.org/ns#"
   xmlns:rdf="http://www.w3.org/1999/02/22-rdf-syntax-ns#"
   xmlns:svg="http://www.w3.org/2000/svg"
   xmlns="http://www.w3.org/2000/svg"
   xmlns:sodipodi="http://sodipodi.sourceforge.net/DTD/sodipodi-0.dtd"
   xmlns:inkscape="http://www.inkscape.org/namespaces/inkscape"
   width="48"
   height="48"
   viewBox="0 0 12.7 12.7"
   version="1.1"
   id="svg8"
   inkscape:version="0.92.3 (2405546, 2018-03-11)"
   sodipodi:docname="font.svg">
  <defs
     id="defs2">
    <clipPath
       clipPathUnits="userSpaceOnUse"
       id="clipPath5343">
      <path
         style="fill:#7aafff;fill-opacity:1;stroke:none;stroke-width:2.01045942;stroke-linecap:round;stroke-linejoin:round;stroke-miterlimit:4;stroke-dasharray:none;stroke-opacity:1"
         d="m 3.0688351,285.55677 c -1.613568,1.19596 -2.5662181,3.08478 -2.56883509,5.09323 0,3.50701 2.84299219,6.35 6.35000009,6.35 C 10.357008,297 13.2,294.15701 13.2,290.65 c -0.0022,-0.84296 -0.452078,-2.71271 -0.500228,-2.45359 -0.02424,0.84121 -0.571809,2.35322 -0.602031,2.23138 -0.0026,-0.50621 -0.2876,-1.42626 -0.305098,-1.19509 0.02804,1.40695 -1.48374,3.17677 -2.3076623,3.50038 -0.8310457,0.36942 -1.7371637,0.56412 -2.6117267,0.56534 -0.1736918,2e-5 -1.1686519,-0.13807 -1.6443439,-0.70435 -0.826376,-0.89253 -0.00201,-1.09994 0.4625039,-1.27331 0.5055862,-0.18871 1.030887,-0.30969 1.5203212,-0.42013 0.7456988,-0.16826 0.4710618,-0.52626 0.1049028,-0.6289 -0.9266939,-0.25976 -2.044886,0.33543 -2.8654579,0.30593 -0.848406,-0.0291 -0.804618,-1.69621 -0.1405601,-1.76217 0.7394212,-0.0734 1.6665151,-0.51079 1.461779,-0.65673 -0.8303549,-0.61672 -0.9617369,-0.79081 -1.0595549,-1.16418 -0.1480201,-0.565 0.341282,-1.03557 0.05777,-0.96356 -0.2596169,0.08 -0.4110678,0.15641 -0.5988619,0.25715 -0.1672929,0.0897 -0.293814,0.0546 -0.6751841,0.002 -0.3249449,-0.045 -0.3870058,-0.0557 -0.3755009,-0.25673 0.0115,-0.20097 0.07295,-0.52125 -0.05223,-0.47648 z"
         id="path5345"
         inkscape:connector-curvature="0"
         sodipodi:nodetypes="ccscccccccssscscscssscc" />
    </clipPath>
    <clipPath
       clipPathUnits="userSpaceOnUse"
       id="clipPath4543">
      <path
         style="opacity:1;vector-effect:none;fill:#666666;fill-opacity:1;stroke:none;stroke-width:2.11666656;stroke-linecap:round;stroke-linejoin:round;stroke-miterlimit:4;stroke-dasharray:none;stroke-dashoffset:0;stroke-opacity:1"
         d="m 1.7760088,291.5696 c -1.82613339,0.17434 -3.2940315,0.91934 -3.4903996,2.16451 -0.2629054,1.66729 1.5678591,3.34127 4.0891213,3.73893 1.2172084,0.19119 2.434234,0.053 3.3807423,-0.38387 0.7310194,0.5283 1.669357,0.90078 2.6704721,1.06008 2.5212691,0.39771 4.7783381,-0.6315 5.0412801,-2.2988 0.262905,-1.6673 -1.490667,-1.94329 -4.257163,-2.17938 -2.7664958,-0.23609 -3.6163896,-1.68839 -5.7470448,-2.04575 -0.5660191,-0.0893 -1.1380808,-0.10817 -1.6870084,-0.0557 z"
         id="path4545"
         inkscape:connector-curvature="0"
         sodipodi:nodetypes="cccccczcc" />
    </clipPath>
  </defs>
  <sodipodi:namedview
     id="base"
     pagecolor="#ffffff"
     bordercolor="#666666"
     borderopacity="1.0"
     inkscape:pageopacity="0.0"
     inkscape:pageshadow="2"
     inkscape:zoom="2.5098608"
     inkscape:cx="-161.55399"
     inkscape:cy="3.5716806"
     inkscape:document-units="mm"
     inkscape:current-layer="layer1"
     showgrid="false"
     units="px"
     inkscape:window-width="2560"
     inkscape:window-height="1403"
     inkscape:window-x="0"
     inkscape:window-y="55"
     inkscape:window-maximized="1" />
  <metadata
     id="metadata5">
    <rdf:RDF>
      <cc:Work
         rdf:about="">
        <dc:format>image/svg+xml</dc:format>
        <dc:type
           rdf:resource="http://purl.org/dc/dcmitype/StillImage" />
        <dc:title />
      </cc:Work>
    </rdf:RDF>
  </metadata>
  <g
     inkscape:label="圖層 1"
     inkscape:groupmode="layer"
     id="layer1"
     transform="translate(0,-284.3)">
    <circle
       style="fill:#999999;fill-opacity:1;stroke:none;stroke-width:1.74658811;stroke-linecap:round;stroke-linejoin:round;stroke-miterlimit:4;stroke-dasharray:none;stroke-opacity:1"
       id="path4514"
       cx="6.3499999"
       cy="290.64999"
       r="6.3499999" />
    <g
       aria-label="a "
       style="font-style:normal;font-weight:normal;font-size:10.58333302px;line-height:1.25;font-family:sans-serif;letter-spacing:0px;word-spacing:0px;fill:#666666;fill-opacity:1;stroke:none;stroke-width:0.26458332"
       id="text888-3-2"
       transform="translate(3.7886896,2.8094067)">
      <path
         d="m 4.3190513,290.90967 c -0.067091,-0.0939 -0.1705322,-0.80615 -0.1705322,-0.80615 h -0.041341 c -0.2824978,0.35484 -0.5649956,0.596 -0.8474934,0.72347 -0.2790527,0.12402 -0.6287299,0.18603 -1.0490316,0.18603 -0.5615505,0 -1.0025227,-0.14469 -1.32291659,-0.43408 -0.31694878,-0.28939 -0.47542317,-0.70108 -0.47542317,-1.23507 0,-1.14377 0.91467286,-1.74322 2.74401846,-1.79834 l 0.9611816,-0.031 v -0.3514 c 0,-0.44442 -0.096463,-0.77171 -0.289388,-0.98186 -0.1894803,-0.21359 -0.4943712,-0.32039 -0.9146728,-0.32039 -0.4719781,0 -1.2710257,0.36516 -1.4701975,0.35172 -0.1991718,-0.0134 -0.4218032,-0.46612 -0.365673,-0.58052 0.05613,-0.1144 0.554295,-0.26385 0.8850242,-0.34998 0.3341742,-0.0861 0.6683484,-0.12919 1.0025227,-0.12919 0.6752387,0 1.1747776,0.14986 1.4986165,0.44959 0.3272841,0.29972 0.4909261,0.78031 0.4909261,1.44177 0,0 0.1087802,3.75003 0,3.8654 -0.1087802,0.11537 -0.5685289,0.0939 -0.6356203,0 z m -1.9378661,-0.60462 c 0.5339897,0 0.9525688,-0.14642 1.2557372,-0.43925 0.3066135,-0.29283 0.4599203,-0.7028 0.4599203,-1.22989 v -0.5116 l -0.8578288,0.0362 c -0.6821289,0.0241 -1.1747775,0.13093 -1.4779459,0.3204 -0.2997233,0.18603 -0.449585,0.47714 -0.449585,0.87333 0,0.31006 0.093018,0.54605 0.2790528,0.70796 0.1894802,0.16192 0.45303,0.24288 0.7906494,0.24288 z"
         style="font-style:normal;font-variant:normal;font-weight:normal;font-stretch:normal;font-family:'Open Sans';-inkscape-font-specification:'Open Sans';fill:#666666;fill-opacity:1;stroke-width:0.26458332"
         id="path913-9"
         inkscape:connector-curvature="0"
         sodipodi:nodetypes="zcccscsccscszzcscszzccscccsccc" />
    </g>
    <g
       aria-label="a
"
       style="font-style:normal;font-weight:normal;font-size:10.58333302px;line-height:1.25;font-family:sans-serif;letter-spacing:0px;word-spacing:0px;fill:#ffffff;fill-opacity:1;stroke:none;stroke-width:0.26458332"
       id="text888-3"
       transform="translate(3.6423342,2.567035)">
      <path
         d="m 4.3190513,290.90967 c -0.067091,-0.0939 -0.1705322,-0.80615 -0.1705322,-0.80615 h -0.041341 c -0.2824978,0.35484 -0.5649956,0.596 -0.8474934,0.72347 -0.2790527,0.12402 -0.6287299,0.18603 -1.0490316,0.18603 -0.5615505,0 -1.0025227,-0.14469 -1.32291659,-0.43408 -0.31694878,-0.28939 -0.47542317,-0.70108 -0.47542317,-1.23507 0,-1.14377 0.91467286,-1.74322 2.74401846,-1.79834 l 0.9611816,-0.031 v -0.3514 c 0,-0.44442 -0.096463,-0.77171 -0.289388,-0.98186 -0.1894803,-0.21359 -0.4943712,-0.32039 -0.9146728,-0.32039 -0.4719781,0 -1.2710257,0.36516 -1.4701975,0.35172 -0.1991718,-0.0134 -0.4218032,-0.46612 -0.365673,-0.58052 0.05613,-0.1144 0.554295,-0.26385 0.8850242,-0.34998 0.3341742,-0.0861 0.6683484,-0.12919 1.0025227,-0.12919 0.6752387,0 1.1747776,0.14986 1.4986165,0.44959 0.3272841,0.29972 0.4909261,0.78031 0.4909261,1.44177 0,0 0.1087802,3.75003 0,3.8654 -0.1087802,0.11537 -0.5685289,0.0939 -0.6356203,0 z m -1.9378661,-0.60462 c 0.5339897,0 0.9525688,-0.14642 1.2557372,-0.43925 0.3066135,-0.29283 0.4599203,-0.7028 0.4599203,-1.22989 v -0.5116 l -0.8578288,0.0362 c -0.6821289,0.0241 -1.1747775,0.13093 -1.4779459,0.3204 -0.2997233,0.18603 -0.449585,0.47714 -0.449585,0.87333 0,0.31006 0.093018,0.54605 0.2790528,0.70796 0.1894802,0.16192 0.45303,0.24288 0.7906494,0.24288 z"
         style="font-style:normal;font-variant:normal;font-weight:normal;font-stretch:normal;font-family:'Open Sans';-inkscape-font-specification:'Open Sans';stroke-width:0.26458332;fill:#ffffff"
         id="path913"
         inkscape:connector-curvature="0"
         sodipodi:nodetypes="zcccscsccscszzcscszzccscccsccc" />
    </g>
  </g>
</svg>
