<?xml version="1.0" encoding="UTF-8" standalone="no"?>
<!-- Created with Inkscape (http://www.inkscape.org/) -->

<svg
   xmlns:dc="http://purl.org/dc/elements/1.1/"
   xmlns:cc="http://creativecommons.org/ns#"
   xmlns:rdf="http://www.w3.org/1999/02/22-rdf-syntax-ns#"
   xmlns:svg="http://www.w3.org/2000/svg"
   xmlns="http://www.w3.org/2000/svg"
   xmlns:sodipodi="http://sodipodi.sourceforge.net/DTD/sodipodi-0.dtd"
   xmlns:inkscape="http://www.inkscape.org/namespaces/inkscape"
   width="48"
   height="48"
   viewBox="0 0 12.7 12.7"
   version="1.1"
   id="svg8"
   inkscape:version="0.92.4 (unknown)"
   sodipodi:docname="cheese2.svg">
  <defs
     id="defs2">
    <clipPath
       clipPathUnits="userSpaceOnUse"
       id="clipPath5343">
      <path
         style="fill:#7aafff;fill-opacity:1;stroke:none;stroke-width:2.01045942;stroke-linecap:round;stroke-linejoin:round;stroke-miterlimit:4;stroke-dasharray:none;stroke-opacity:1"
         d="m 3.0688351,285.55677 c -1.613568,1.19596 -2.5662181,3.08478 -2.56883509,5.09323 0,3.50701 2.84299219,6.35 6.35000009,6.35 C 10.357008,297 13.2,294.15701 13.2,290.65 c -0.0022,-0.84296 -0.452078,-2.71271 -0.500228,-2.45359 -0.02424,0.84121 -0.571809,2.35322 -0.602031,2.23138 -0.0026,-0.50621 -0.2876,-1.42626 -0.305098,-1.19509 0.02804,1.40695 -1.48374,3.17677 -2.3076623,3.50038 -0.8310457,0.36942 -1.7371637,0.56412 -2.6117267,0.56534 -0.1736918,2e-5 -1.1686519,-0.13807 -1.6443439,-0.70435 -0.826376,-0.89253 -0.00201,-1.09994 0.4625039,-1.27331 0.5055862,-0.18871 1.030887,-0.30969 1.5203212,-0.42013 0.7456988,-0.16826 0.4710618,-0.52626 0.1049028,-0.6289 -0.9266939,-0.25976 -2.044886,0.33543 -2.8654579,0.30593 -0.848406,-0.0291 -0.804618,-1.69621 -0.1405601,-1.76217 0.7394212,-0.0734 1.6665151,-0.51079 1.461779,-0.65673 -0.8303549,-0.61672 -0.9617369,-0.79081 -1.0595549,-1.16418 -0.1480201,-0.565 0.341282,-1.03557 0.05777,-0.96356 -0.2596169,0.08 -0.4110678,0.15641 -0.5988619,0.25715 -0.1672929,0.0897 -0.293814,0.0546 -0.6751841,0.002 -0.3249449,-0.045 -0.3870058,-0.0557 -0.3755009,-0.25673 0.0115,-0.20097 0.07295,-0.52125 -0.05223,-0.47648 z"
         id="path5345"
         inkscape:connector-curvature="0"
         sodipodi:nodetypes="ccscccccccssscscscssscc" />
    </clipPath>
    <clipPath
       clipPathUnits="userSpaceOnUse"
       id="clipPath4543">
      <path
         style="opacity:1;vector-effect:none;fill:#666666;fill-opacity:1;stroke:none;stroke-width:2.11666656;stroke-linecap:round;stroke-linejoin:round;stroke-miterlimit:4;stroke-dasharray:none;stroke-dashoffset:0;stroke-opacity:1"
         d="m 1.7760088,291.5696 c -1.82613339,0.17434 -3.2940315,0.91934 -3.4903996,2.16451 -0.2629054,1.66729 1.5678591,3.34127 4.0891213,3.73893 1.2172084,0.19119 2.434234,0.053 3.3807423,-0.38387 0.7310194,0.5283 1.669357,0.90078 2.6704721,1.06008 2.5212691,0.39771 4.7783381,-0.6315 5.0412801,-2.2988 0.262905,-1.6673 -1.490667,-1.94329 -4.257163,-2.17938 -2.7664958,-0.23609 -3.6163896,-1.68839 -5.7470448,-2.04575 -0.5660191,-0.0893 -1.1380808,-0.10817 -1.6870084,-0.0557 z"
         id="path4545"
         inkscape:connector-curvature="0"
         sodipodi:nodetypes="cccccczcc" />
    </clipPath>
  </defs>
  <sodipodi:namedview
     id="base"
     pagecolor="#ffffff"
     bordercolor="#666666"
     borderopacity="1.0"
     inkscape:pageopacity="0.0"
     inkscape:pageshadow="2"
     inkscape:zoom="7.0989584"
     inkscape:cx="-49.935846"
     inkscape:cy="-20.640594"
     inkscape:document-units="mm"
     inkscape:current-layer="layer1"
     showgrid="false"
     units="px"
     inkscape:window-width="2442"
     inkscape:window-height="1552"
     inkscape:window-x="118"
     inkscape:window-y="48"
     inkscape:window-maximized="1" />
  <metadata
     id="metadata5">
    <rdf:RDF>
      <cc:Work
         rdf:about="">
        <dc:format>image/svg+xml</dc:format>
        <dc:type
           rdf:resource="http://purl.org/dc/dcmitype/StillImage" />
        <dc:title></dc:title>
      </cc:Work>
    </rdf:RDF>
  </metadata>
  <g
     inkscape:label="圖層 1"
     inkscape:groupmode="layer"
     id="layer1"
     transform="translate(0,-284.3)">
    <circle
       style="fill:#ffd5d5;fill-opacity:1;stroke:none;stroke-width:1.74658811;stroke-linecap:round;stroke-linejoin:round;stroke-miterlimit:4;stroke-dasharray:none;stroke-opacity:1"
       id="path4514"
       cx="6.3499999"
       cy="290.64999"
       r="6.3499999" />
    <path
       style="opacity:1;fill:#ff7d7d;fill-opacity:1;stroke:none;stroke-width:0.53131485;stroke-linejoin:round;stroke-miterlimit:4;stroke-dasharray:none;stroke-opacity:1;paint-order:normal"
       d="m 6.4884351,287.0379 a 3.2485741,3.2485741 0 0 0 -3.2486475,3.24865 3.2485741,3.2485741 0 0 0 1.3140659,2.60452 H 4.2221793 c -0.1241202,0 -0.1832492,0.10682 -0.2240446,0.22405 l -0.349795,1.00545 c -0.040804,0.11725 0.099927,0.22404 0.2240446,0.22404 h 5.2326509 c 0.1241206,0 0.2648391,-0.10681 0.2240448,-0.22404 l -0.3503445,-1.00545 c -0.040804,-0.11725 -0.099928,-0.22405 -0.2240447,-0.22405 H 8.4246643 a 3.2485741,3.2485741 0 0 0 1.3124189,-2.60452 3.2485741,3.2485741 0 0 0 -3.2486481,-3.24865 z"
       id="path929-2"
       inkscape:connector-curvature="0" />
    <path
       style="opacity:1;fill:#ffffff;fill-opacity:1;stroke:none;stroke-width:0.53131485;stroke-linejoin:round;stroke-miterlimit:4;stroke-dasharray:none;stroke-opacity:1;paint-order:normal"
       d="m 9.5943682,290.14092 a 3.248574,3.248574 0 0 1 -3.248574,3.24858 3.248574,3.248574 0 0 1 -3.248574,-3.24858 3.248574,3.248574 0 0 1 3.248574,-3.24857 3.248574,3.248574 0 0 1 3.248574,3.24857 z"
       id="path929"
       inkscape:connector-curvature="0" />
    <path
       style="opacity:1;fill:#999999;fill-opacity:1;stroke:none;stroke-width:0.53131485;stroke-linejoin:round;stroke-miterlimit:4;stroke-dasharray:none;stroke-opacity:1;paint-order:normal"
       d="M 4.0795988,292.74539 H 8.611982 c 0.1241173,0 0.183235,0.10678 0.2240395,0.22403 l 0.3500949,1.00597 c 0.040797,0.11723 -0.099919,0.22404 -0.2240395,0.22404 H 3.7295132 c -0.1241173,0 -0.2648431,-0.10679 -0.2240395,-0.22404 l 0.3500855,-1.00597 c 0.040795,-0.11723 0.099919,-0.22403 0.2240396,-0.22403 z"
       id="rect931"
       inkscape:connector-curvature="0"
       sodipodi:nodetypes="sssssssss" />
    <path
       style="opacity:1;fill:#999999;fill-opacity:1;stroke:none;stroke-width:0.26732445;stroke-linejoin:round;stroke-miterlimit:4;stroke-dasharray:none;stroke-opacity:1;paint-order:normal"
       d="m 8.0248295,290.18541 a 1.6344796,1.6344796 0 0 1 -1.6344797,1.63448 1.6344796,1.6344796 0 0 1 -1.6344796,-1.63448 1.6344796,1.6344796 0 0 1 1.6344796,-1.63449 1.6344796,1.6344796 0 0 1 1.6344797,1.63449 z"
       id="path929-5-7"
       inkscape:connector-curvature="0" />
    <path
       style="opacity:1;fill:#cccccc;fill-opacity:1;stroke:none;stroke-width:0.26732445;stroke-linejoin:round;stroke-miterlimit:4;stroke-dasharray:none;stroke-opacity:1;paint-order:normal"
       d="m 7.9802739,290.14092 a 1.6344796,1.6344796 0 0 1 -1.6344797,1.63449 1.6344796,1.6344796 0 0 1 -1.6344796,-1.63449 1.6344796,1.6344796 0 0 1 1.6344796,-1.63448 1.6344796,1.6344796 0 0 1 1.6344797,1.63448 z"
       id="path929-5"
       inkscape:connector-curvature="0" />
    <path
       style="opacity:1;fill:#666666;fill-opacity:1;stroke:none;stroke-width:0.183212;stroke-linejoin:round;stroke-miterlimit:4;stroke-dasharray:none;stroke-opacity:1;paint-order:normal"
       d="m 7.4659921,290.14092 a 1.1201979,1.1201979 0 0 1 -1.1201979,1.12021 1.1201979,1.1201979 0 0 1 -1.1201979,-1.12021 1.1201979,1.1201979 0 0 1 1.1201979,-1.12019 1.1201979,1.1201979 0 0 1 1.1201979,1.12019 z"
       id="path929-5-3"
       inkscape:connector-curvature="0" />
    <path
       style="opacity:1;fill:#80decc;fill-opacity:1;stroke:none;stroke-width:0.02519164;stroke-linejoin:round;stroke-miterlimit:4;stroke-dasharray:none;stroke-opacity:1;paint-order:normal"
       d="m 4.9414473,288.56569 a 0.15402714,0.15402714 0 0 1 -0.1540271,0.15403 0.15402714,0.15402714 0 0 1 -0.1540272,-0.15403 0.15402714,0.15402714 0 0 1 0.1540272,-0.15403 0.15402714,0.15402714 0 0 1 0.1540271,0.15403 z"
       id="path929-5-3-5"
       inkscape:connector-curvature="0" />
    <path
       style="opacity:1;fill:#ffffff;fill-opacity:1;stroke:none;stroke-width:0.02046424;stroke-linejoin:round;stroke-miterlimit:4;stroke-dasharray:none;stroke-opacity:1;paint-order:normal"
       d="m 6.8570655,289.82562 a 0.12512279,0.12512279 0 0 1 -0.1251228,0.12512 0.12512279,0.12512279 0 0 1 -0.1251229,-0.12512 0.12512279,0.12512279 0 0 1 0.1251229,-0.12512 0.12512279,0.12512279 0 0 1 0.1251228,0.12512 z"
       id="path929-5-3-6"
       inkscape:connector-curvature="0" />
  </g>
</svg>
