<?xml version="1.0" encoding="UTF-8" standalone="no"?>
<!-- Created with Inkscape (http://www.inkscape.org/) -->

<svg
   xmlns:dc="http://purl.org/dc/elements/1.1/"
   xmlns:cc="http://creativecommons.org/ns#"
   xmlns:rdf="http://www.w3.org/1999/02/22-rdf-syntax-ns#"
   xmlns:svg="http://www.w3.org/2000/svg"
   xmlns="http://www.w3.org/2000/svg"
   xmlns:sodipodi="http://sodipodi.sourceforge.net/DTD/sodipodi-0.dtd"
   xmlns:inkscape="http://www.inkscape.org/namespaces/inkscape"
   width="48"
   height="48"
   viewBox="0 0 12.7 12.7"
   version="1.1"
   id="svg8"
   inkscape:version="0.92.0 unknown"
   sodipodi:docname="firefox.svg">
  <defs
     id="defs2">
    <clipPath
       clipPathUnits="userSpaceOnUse"
       id="clipPath5343">
      <path
         style="fill:#7aafff;fill-opacity:1;stroke:none;stroke-width:2.01045942;stroke-linecap:round;stroke-linejoin:round;stroke-miterlimit:4;stroke-dasharray:none;stroke-opacity:1"
         d="m 3.0688351,285.55677 c -1.613568,1.19596 -2.5662181,3.08478 -2.56883509,5.09323 0,3.50701 2.84299219,6.35 6.35000009,6.35 C 10.357008,297 13.2,294.15701 13.2,290.65 c -0.0022,-0.84296 -0.452078,-2.71271 -0.500228,-2.45359 -0.02424,0.84121 -0.571809,2.35322 -0.602031,2.23138 -0.0026,-0.50621 -0.2876,-1.42626 -0.305098,-1.19509 0.02804,1.40695 -1.48374,3.17677 -2.3076623,3.50038 -0.8310457,0.36942 -1.7371637,0.56412 -2.6117267,0.56534 -0.1736918,2e-5 -1.1686519,-0.13807 -1.6443439,-0.70435 -0.826376,-0.89253 -0.00201,-1.09994 0.4625039,-1.27331 0.5055862,-0.18871 1.030887,-0.30969 1.5203212,-0.42013 0.7456988,-0.16826 0.4710618,-0.52626 0.1049028,-0.6289 -0.9266939,-0.25976 -2.044886,0.33543 -2.8654579,0.30593 -0.848406,-0.0291 -0.804618,-1.69621 -0.1405601,-1.76217 0.7394212,-0.0734 1.6665151,-0.51079 1.461779,-0.65673 -0.8303549,-0.61672 -0.9617369,-0.79081 -1.0595549,-1.16418 -0.1480201,-0.565 0.341282,-1.03557 0.05777,-0.96356 -0.2596169,0.08 -0.4110678,0.15641 -0.5988619,0.25715 -0.1672929,0.0897 -0.293814,0.0546 -0.6751841,0.002 -0.3249449,-0.045 -0.3870058,-0.0557 -0.3755009,-0.25673 0.0115,-0.20097 0.07295,-0.52125 -0.05223,-0.47648 z"
         id="path5345"
         inkscape:connector-curvature="0"
         sodipodi:nodetypes="ccscccccccssscscscssscc" />
    </clipPath>
  </defs>
  <sodipodi:namedview
     id="base"
     pagecolor="#ffffff"
     bordercolor="#666666"
     borderopacity="1.0"
     inkscape:pageopacity="0.0"
     inkscape:pageshadow="2"
     inkscape:zoom="7.0989583"
     inkscape:cx="6.3869746"
     inkscape:cy="29.731507"
     inkscape:document-units="mm"
     inkscape:current-layer="layer1"
     showgrid="false"
     units="px"
     inkscape:window-width="1227"
     inkscape:window-height="1526"
     inkscape:window-x="98"
     inkscape:window-y="36"
     inkscape:window-maximized="0" />
  <metadata
     id="metadata5">
    <rdf:RDF>
      <cc:Work
         rdf:about="">
        <dc:format>image/svg+xml</dc:format>
        <dc:type
           rdf:resource="http://purl.org/dc/dcmitype/StillImage" />
        <dc:title />
      </cc:Work>
    </rdf:RDF>
  </metadata>
  <g
     inkscape:label="圖層 1"
     inkscape:groupmode="layer"
     id="layer1"
     transform="translate(0,-284.3)">
    <g
       id="g5349"
       transform="translate(9.536743e-8,6.1988831e-6)">
      <circle
         r="6.3499999"
         cy="290.64999"
         cx="6.3499999"
         id="path4485-753"
         style="fill:#aaccff;fill-opacity:1;stroke:none;stroke-width:2.01045942;stroke-linecap:round;stroke-linejoin:round;stroke-miterlimit:4;stroke-dasharray:none;stroke-opacity:1" />
      <circle
         clip-path="url(#clipPath5343)"
         r="6.3499999"
         cy="290.64999"
         cx="6.3499999"
         id="path4485"
         style="fill:#5b99f8;fill-opacity:1;stroke:none;stroke-width:2.01045942;stroke-linecap:round;stroke-linejoin:round;stroke-miterlimit:4;stroke-dasharray:none;stroke-opacity:1" />
    </g>
    <path
       style="fill:#ffac76;fill-opacity:1;stroke:none;stroke-width:2.01045942;stroke-linecap:round;stroke-linejoin:round;stroke-miterlimit:4;stroke-dasharray:none;stroke-opacity:1"
       d="M 2.5688353,285.55677 C 0.95526621,286.75273 0.00261721,288.64155 2.1e-7,290.65 2.1e-7,294.15701 2.8429918,297 6.35,297 c 3.5070081,0 6.35,-2.84299 6.35,-6.35 -0.0022,-0.84296 -0.452078,-2.71271 -0.500228,-2.45359 -0.02424,0.84121 -0.571809,2.35322 -0.602031,2.23138 -0.0026,-0.50621 -0.2876,-1.42626 -0.305098,-1.19509 0.02804,1.40695 -1.4837399,3.17677 -2.3076619,3.50038 -0.8310467,0.36942 -1.7371647,0.56412 -2.6117269,0.56534 -0.1736926,2e-5 -1.1686526,-0.13807 -1.644344,-0.70435 -0.826376,-0.89253 -0.00196,-1.09994 0.4625041,-1.27331 0.5055853,-0.18871 1.0308864,-0.30969 1.5203205,-0.42013 0.7456993,-0.16826 0.4710623,-0.52626 0.1049034,-0.6289 -0.9266942,-0.25976 -2.044886,0.33543 -2.8654583,0.30593 -0.848406,-0.0291 -0.8046181,-1.69621 -0.1405599,-1.76217 0.7394206,-0.0734 1.666515,-0.51079 1.4617786,-0.65673 -0.8303548,-0.61672 -0.9617374,-0.79081 -1.0595548,-1.16418 -0.1480196,-0.565 0.3412814,-1.03557 0.05777,-0.96356 -0.2596175,0.08 -0.4110679,0.15641 -0.5988621,0.25715 -0.1672932,0.0897 -0.2938145,0.0546 -0.6751834,0.002 -0.3249455,-0.045 -0.387006,-0.0557 -0.3755019,-0.25673 0.011504,-0.20097 0.072949,-0.52125 -0.052231,-0.47648 z"
       id="path4485-75"
       inkscape:connector-curvature="0"
       sodipodi:nodetypes="ccscccccccssscscscssscc" />
  </g>
</svg>
