<?xml version="1.0" encoding="UTF-8" standalone="no"?>
<!-- Created with Inkscape (http://www.inkscape.org/) -->

<svg
   xmlns:dc="http://purl.org/dc/elements/1.1/"
   xmlns:cc="http://creativecommons.org/ns#"
   xmlns:rdf="http://www.w3.org/1999/02/22-rdf-syntax-ns#"
   xmlns:svg="http://www.w3.org/2000/svg"
   xmlns="http://www.w3.org/2000/svg"
   xmlns:sodipodi="http://sodipodi.sourceforge.net/DTD/sodipodi-0.dtd"
   xmlns:inkscape="http://www.inkscape.org/namespaces/inkscape"
   width="48"
   height="48"
   viewBox="0 0 12.7 12.7"
   version="1.1"
   id="svg8"
   inkscape:version="0.92.3 (2405546, 2018-03-11)"
   sodipodi:docname="gnome-power-statistics.svg">
  <defs
     id="defs2">
    <clipPath
       clipPathUnits="userSpaceOnUse"
       id="clipPath5343">
      <path
         style="fill:#7aafff;fill-opacity:1;stroke:none;stroke-width:2.01045942;stroke-linecap:round;stroke-linejoin:round;stroke-miterlimit:4;stroke-dasharray:none;stroke-opacity:1"
         d="m 3.0688351,285.55677 c -1.613568,1.19596 -2.5662181,3.08478 -2.56883509,5.09323 0,3.50701 2.84299219,6.35 6.35000009,6.35 C 10.357008,297 13.2,294.15701 13.2,290.65 c -0.0022,-0.84296 -0.452078,-2.71271 -0.500228,-2.45359 -0.02424,0.84121 -0.571809,2.35322 -0.602031,2.23138 -0.0026,-0.50621 -0.2876,-1.42626 -0.305098,-1.19509 0.02804,1.40695 -1.48374,3.17677 -2.3076623,3.50038 -0.8310457,0.36942 -1.7371637,0.56412 -2.6117267,0.56534 -0.1736918,2e-5 -1.1686519,-0.13807 -1.6443439,-0.70435 -0.826376,-0.89253 -0.00201,-1.09994 0.4625039,-1.27331 0.5055862,-0.18871 1.030887,-0.30969 1.5203212,-0.42013 0.7456988,-0.16826 0.4710618,-0.52626 0.1049028,-0.6289 -0.9266939,-0.25976 -2.044886,0.33543 -2.8654579,0.30593 -0.848406,-0.0291 -0.804618,-1.69621 -0.1405601,-1.76217 0.7394212,-0.0734 1.6665151,-0.51079 1.461779,-0.65673 -0.8303549,-0.61672 -0.9617369,-0.79081 -1.0595549,-1.16418 -0.1480201,-0.565 0.341282,-1.03557 0.05777,-0.96356 -0.2596169,0.08 -0.4110678,0.15641 -0.5988619,0.25715 -0.1672929,0.0897 -0.293814,0.0546 -0.6751841,0.002 -0.3249449,-0.045 -0.3870058,-0.0557 -0.3755009,-0.25673 0.0115,-0.20097 0.07295,-0.52125 -0.05223,-0.47648 z"
         id="path5345"
         inkscape:connector-curvature="0"
         sodipodi:nodetypes="ccscccccccssscscscssscc" />
    </clipPath>
    <clipPath
       clipPathUnits="userSpaceOnUse"
       id="clipPath4543">
      <path
         style="opacity:1;vector-effect:none;fill:#666666;fill-opacity:1;stroke:none;stroke-width:2.11666656;stroke-linecap:round;stroke-linejoin:round;stroke-miterlimit:4;stroke-dasharray:none;stroke-dashoffset:0;stroke-opacity:1"
         d="m 1.7760088,291.5696 c -1.82613339,0.17434 -3.2940315,0.91934 -3.4903996,2.16451 -0.2629054,1.66729 1.5678591,3.34127 4.0891213,3.73893 1.2172084,0.19119 2.434234,0.053 3.3807423,-0.38387 0.7310194,0.5283 1.669357,0.90078 2.6704721,1.06008 2.5212691,0.39771 4.7783381,-0.6315 5.0412801,-2.2988 0.262905,-1.6673 -1.490667,-1.94329 -4.257163,-2.17938 -2.7664958,-0.23609 -3.6163896,-1.68839 -5.7470448,-2.04575 -0.5660191,-0.0893 -1.1380808,-0.10817 -1.6870084,-0.0557 z"
         id="path4545"
         inkscape:connector-curvature="0"
         sodipodi:nodetypes="cccccczcc" />
    </clipPath>
  </defs>
  <sodipodi:namedview
     id="base"
     pagecolor="#ffffff"
     bordercolor="#666666"
     borderopacity="1.0"
     inkscape:pageopacity="0.0"
     inkscape:pageshadow="2"
     inkscape:zoom="14.197916"
     inkscape:cx="4.6983112"
     inkscape:cy="18.71416"
     inkscape:document-units="mm"
     inkscape:current-layer="layer1"
     showgrid="false"
     units="px"
     inkscape:window-width="2560"
     inkscape:window-height="1403"
     inkscape:window-x="0"
     inkscape:window-y="55"
     inkscape:window-maximized="1" />
  <metadata
     id="metadata5">
    <rdf:RDF>
      <cc:Work
         rdf:about="">
        <dc:format>image/svg+xml</dc:format>
        <dc:type
           rdf:resource="http://purl.org/dc/dcmitype/StillImage" />
        <dc:title />
      </cc:Work>
    </rdf:RDF>
  </metadata>
  <g
     inkscape:label="圖層 1"
     inkscape:groupmode="layer"
     id="layer1"
     transform="translate(0,-284.3)">
    <circle
       style="fill:#ffccaa;fill-opacity:1;stroke:none;stroke-width:1.74658811;stroke-linecap:round;stroke-linejoin:round;stroke-miterlimit:4;stroke-dasharray:none;stroke-opacity:1"
       id="path4514"
       cx="6.3499999"
       cy="290.64999"
       r="6.3499999" />
    <path
       inkscape:connector-curvature="0"
       id="rect851-3-75"
       d="m 5.5225619,289.40868 h 4.6236621 c 0.0618,0 0.111556,0.0497 0.111556,0.11163 v 2.59931 c 0,0.0618 -0.04975,0.11149 -0.111556,0.11149 H 5.5225619 c -0.061803,0 -0.1115571,-0.0497 -0.1115571,-0.11149 v -2.59931 c 0,-0.0618 0.049755,-0.11163 0.1115571,-0.11163 z"
       style="opacity:1;fill:#ff924b;fill-opacity:1;stroke:none;stroke-width:0.51082087;stroke-linejoin:round;stroke-miterlimit:4;stroke-dasharray:none;stroke-opacity:1;paint-order:normal" />
    <path
       inkscape:connector-curvature="0"
       id="rect851-3"
       d="m 5.3318728,289.23878 h 4.623662 c 0.061799,0 0.1115552,0.0497 0.1115552,0.11163 v 2.59931 c 0,0.0618 -0.04975,0.11149 -0.1115552,0.11149 h -4.623662 c -0.061803,0 -0.111557,-0.0497 -0.111557,-0.11149 v -2.59931 c 0,-0.0618 0.049755,-0.11163 0.111557,-0.11163 z"
       style="opacity:1;fill:#fffefe;fill-opacity:1;stroke:none;stroke-width:0.51082087;stroke-linejoin:round;stroke-miterlimit:4;stroke-dasharray:none;stroke-opacity:1;paint-order:normal" />
    <path
       sodipodi:nodetypes="sscsssscsssssssssssssszzss"
       inkscape:connector-curvature="0"
       id="rect843-3"
       d="m 3.1908978,288.82641 c -0.088099,0 -0.1591651,0.0675 -0.1591651,0.15082 v 0.89933 H 2.3217746 c -0.067392,0 -0.1214698,0.0513 -0.1214698,0.11531 v 1.72209 c 0,0.0639 0.054077,0.11507 0.1214698,0.11507 h 0.7099575 v 0.89964 c 0,0.0833 0.071067,0.15058 0.159165,0.15058 H 10.72548 c 0.0881,0 0.159167,-0.0673 0.159167,-0.15058 v -3.75142 c 0,-0.0833 -0.07107,-0.15081 -0.159167,-0.15081 z m 0.3598528,0.38999 h 6.8150544 c 0.07152,0 0.128946,0.0574 0.128946,0.12889 v 3.01499 c 0,0.0715 -0.05743,0.12913 -0.128946,0.12913 H 3.5507506 c -0.071519,0 -0.1289459,-0.0576 -0.1289459,-0.12913 v -0.5313 -1.95247 -0.53122 c 0,-0.0715 0.057426,-0.12889 0.1289459,-0.12889 z"
       style="opacity:1;fill:#ff924b;fill-opacity:1;stroke:none;stroke-width:0.61390841;stroke-linejoin:round;stroke-miterlimit:4;stroke-dasharray:none;stroke-opacity:1;paint-order:normal" />
    <path
       sodipodi:nodetypes="sscsssscsssssssssssssszzss"
       inkscape:connector-curvature="0"
       id="rect843"
       d="m 2.9936202,288.62357 c -0.088099,0 -0.1591651,0.0675 -0.1591651,0.15082 v 0.89933 H 2.124497 c -0.067392,0 -0.1214698,0.0513 -0.1214698,0.11531 v 1.72209 c 0,0.0639 0.054077,0.11507 0.1214698,0.11507 h 0.7099575 v 0.89964 c 0,0.0833 0.071067,0.15058 0.159165,0.15058 h 7.5345835 c 0.0881,0 0.159166,-0.0673 0.159166,-0.15058 v -3.75142 c 0,-0.0833 -0.07107,-0.15081 -0.159166,-0.15081 z m 0.3598528,0.38999 h 6.815054 c 0.07152,0 0.128946,0.0574 0.128946,0.12889 v 3.01499 c 0,0.0715 -0.05743,0.12913 -0.128946,0.12913 H 3.353473 c -0.071519,0 -0.1289459,-0.0576 -0.1289459,-0.12913 v -0.5313 -1.95247 -0.53122 c 0,-0.0715 0.057426,-0.12889 0.1289459,-0.12889 z"
       style="opacity:1;fill:#fffefe;fill-opacity:1;stroke:none;stroke-width:0.61390835;stroke-linejoin:round;stroke-miterlimit:4;stroke-dasharray:none;stroke-opacity:1;paint-order:normal" />
    <circle
       style="fill:#ff924b;fill-opacity:1;fill-rule:nonzero;stroke:none;stroke-width:0.2;stroke-linecap:round;stroke-linejoin:round;stroke-miterlimit:4;stroke-dasharray:none;stroke-opacity:1"
       id="path871-6"
       cx="-7.7495956"
       cy="293.7189"
       r="0" />
    <path
       style="fill:#ff924b;fill-opacity:1;fill-rule:nonzero;stroke:none;stroke-width:0.2;stroke-linecap:round;stroke-linejoin:round;stroke-miterlimit:4;stroke-dasharray:none;stroke-opacity:1"
       d="m 7.4328678,289.78273 h 0.4216701 l -0.019981,1.26502 -0.382,-1.5e-4 z"
       id="rect957"
       inkscape:connector-curvature="0"
       sodipodi:nodetypes="ccccc" />
    <path
       style="fill:#ff924b;fill-opacity:1;fill-rule:nonzero;stroke:none;stroke-width:0.23836966;stroke-linecap:round;stroke-linejoin:round;stroke-miterlimit:4;stroke-dasharray:none;stroke-opacity:1"
       d="m 7.4527028,291.17746 h 0.382 v 0.33979 h -0.382 z"
       id="rect974"
       inkscape:connector-curvature="0" />
  </g>
</svg>
