<?xml version="1.0" encoding="UTF-8" standalone="no"?>
<!-- Created with Inkscape (http://www.inkscape.org/) -->

<svg
   xmlns:dc="http://purl.org/dc/elements/1.1/"
   xmlns:cc="http://creativecommons.org/ns#"
   xmlns:rdf="http://www.w3.org/1999/02/22-rdf-syntax-ns#"
   xmlns:svg="http://www.w3.org/2000/svg"
   xmlns="http://www.w3.org/2000/svg"
   xmlns:sodipodi="http://sodipodi.sourceforge.net/DTD/sodipodi-0.dtd"
   xmlns:inkscape="http://www.inkscape.org/namespaces/inkscape"
   width="48"
   height="48"
   viewBox="0 0 12.7 12.7"
   version="1.1"
   id="svg8"
   inkscape:version="0.92.0 unknown"
   sodipodi:docname="google-keep.svg">
  <defs
     id="defs2">
    <clipPath
       clipPathUnits="userSpaceOnUse"
       id="clipPath5343">
      <path
         style="fill:#7aafff;fill-opacity:1;stroke:none;stroke-width:2.01045942;stroke-linecap:round;stroke-linejoin:round;stroke-miterlimit:4;stroke-dasharray:none;stroke-opacity:1"
         d="m 3.0688351,285.55677 c -1.613568,1.19596 -2.5662181,3.08478 -2.56883509,5.09323 0,3.50701 2.84299219,6.35 6.35000009,6.35 C 10.357008,297 13.2,294.15701 13.2,290.65 c -0.0022,-0.84296 -0.452078,-2.71271 -0.500228,-2.45359 -0.02424,0.84121 -0.571809,2.35322 -0.602031,2.23138 -0.0026,-0.50621 -0.2876,-1.42626 -0.305098,-1.19509 0.02804,1.40695 -1.48374,3.17677 -2.3076623,3.50038 -0.8310457,0.36942 -1.7371637,0.56412 -2.6117267,0.56534 -0.1736918,2e-5 -1.1686519,-0.13807 -1.6443439,-0.70435 -0.826376,-0.89253 -0.00201,-1.09994 0.4625039,-1.27331 0.5055862,-0.18871 1.030887,-0.30969 1.5203212,-0.42013 0.7456988,-0.16826 0.4710618,-0.52626 0.1049028,-0.6289 -0.9266939,-0.25976 -2.044886,0.33543 -2.8654579,0.30593 -0.848406,-0.0291 -0.804618,-1.69621 -0.1405601,-1.76217 0.7394212,-0.0734 1.6665151,-0.51079 1.461779,-0.65673 -0.8303549,-0.61672 -0.9617369,-0.79081 -1.0595549,-1.16418 -0.1480201,-0.565 0.341282,-1.03557 0.05777,-0.96356 -0.2596169,0.08 -0.4110678,0.15641 -0.5988619,0.25715 -0.1672929,0.0897 -0.293814,0.0546 -0.6751841,0.002 -0.3249449,-0.045 -0.3870058,-0.0557 -0.3755009,-0.25673 0.0115,-0.20097 0.07295,-0.52125 -0.05223,-0.47648 z"
         id="path5345"
         inkscape:connector-curvature="0"
         sodipodi:nodetypes="ccscccccccssscscscssscc" />
    </clipPath>
  </defs>
  <sodipodi:namedview
     id="base"
     pagecolor="#ffffff"
     bordercolor="#666666"
     borderopacity="1.0"
     inkscape:pageopacity="0.0"
     inkscape:pageshadow="2"
     inkscape:zoom="7.0989584"
     inkscape:cx="-59.768316"
     inkscape:cy="4.1107098"
     inkscape:document-units="mm"
     inkscape:current-layer="layer1"
     showgrid="false"
     units="px"
     inkscape:window-width="2462"
     inkscape:window-height="1564"
     inkscape:window-x="98"
     inkscape:window-y="36"
     inkscape:window-maximized="1"
     inkscape:measure-start="0,0"
     inkscape:measure-end="0,0" />
  <metadata
     id="metadata5">
    <rdf:RDF>
      <cc:Work
         rdf:about="">
        <dc:format>image/svg+xml</dc:format>
        <dc:type
           rdf:resource="http://purl.org/dc/dcmitype/StillImage" />
        <dc:title></dc:title>
      </cc:Work>
    </rdf:RDF>
  </metadata>
  <g
     inkscape:label="圖層 1"
     inkscape:groupmode="layer"
     id="layer1"
     transform="translate(0,-284.3)">
    <circle
       style="fill:#ffccaa;fill-opacity:1;stroke:none;stroke-width:1.74658811;stroke-linecap:round;stroke-linejoin:round;stroke-miterlimit:4;stroke-dasharray:none;stroke-opacity:1"
       id="path4514"
       cx="6.3499999"
       cy="290.64999"
       r="6.3499999" />
    <path
       style="fill:#ff924b;fill-opacity:1;stroke:none;stroke-width:2.11666656;stroke-linecap:round;stroke-linejoin:round;stroke-miterlimit:4;stroke-dasharray:none;stroke-opacity:1"
       d="m 6.5567158,286.83676 a 2.8199191,2.8199191 0 0 0 -2.8199829,2.81998 2.8199191,2.8199191 0 0 0 1.144633,2.26395 v 0.34881 c 0,0.20117 0.16212,0.36277 0.3632854,0.36277 h 2.624129 c 0.2011653,0 0.3632853,-0.1616 0.3632853,-0.36277 v -0.34881 a 2.8199191,2.8199191 0 0 0 1.144633,-2.26395 2.8199191,2.8199191 0 0 0 -2.8199828,-2.81998 z m 0,0.74517 a 2.0745046,2.0745046 0 0 1 2.074292,2.07481 2.0745046,2.0745046 0 0 1 -1.0536825,1.80299 v 0.41962 c 0,0.0866 -0.06945,0.15606 -0.1560628,0.15606 H 5.6921691 c -0.086613,0 -0.1560629,-0.0695 -0.1560629,-0.15606 v -0.41807 a 2.0745046,2.0745046 0 0 1 -1.0536824,-1.80454 2.0745046,2.0745046 0 0 1 2.074292,-2.07481 z"
       id="path4521-5"
       inkscape:connector-curvature="0" />
    <path
       inkscape:connector-curvature="0"
       id="rect4523-5-98"
       d="m 5.1911667,293.54268 h 2.7310992 c 0.171555,0 0.3096661,0.13811 0.3096661,0.30966 0,0.17156 -0.1381111,0.30967 -0.3096661,0.30967 H 5.1911667 c -0.171555,0 -0.3096661,-0.13811 -0.3096661,-0.30967 0,-0.17155 0.1381111,-0.30966 0.3096661,-0.30966 z"
       style="fill:#ff924b;fill-opacity:1;stroke:none;stroke-width:1.9231627;stroke-linecap:round;stroke-linejoin:round;stroke-miterlimit:4;stroke-dasharray:none;stroke-opacity:1" />
    <path
       inkscape:connector-curvature="0"
       id="rect4523-5-9-4"
       d="m 5.5815994,294.29487 h 1.9502333 c 0.1095001,0 0.1976536,0.0882 0.1976536,0.19766 v 0.0264 c 0,0.1095 -0.088153,0.19766 -0.1976536,0.19766 H 5.5815994 c -0.1095001,0 -0.1976536,-0.0882 -0.1976536,-0.19766 v -0.0264 c 0,-0.1095 0.088153,-0.19766 0.1976536,-0.19766 z"
       style="fill:#ff924b;fill-opacity:1;stroke:none;stroke-width:2.11666656;stroke-linecap:round;stroke-linejoin:round;stroke-miterlimit:4;stroke-dasharray:none;stroke-opacity:1" />
    <path
       inkscape:connector-curvature="0"
       id="rect4523-5-4-8"
       d="m 5.1911667,292.76454 h 2.7310992 c 0.171555,0 0.3096661,0.13811 0.3096661,0.30967 0,0.17155 -0.1381111,0.30966 -0.3096661,0.30966 H 5.1911667 c -0.171555,0 -0.3096661,-0.13811 -0.3096661,-0.30966 0,-0.17156 0.1381111,-0.30967 0.3096661,-0.30967 z"
       style="fill:#ff924b;fill-opacity:1;stroke:none;stroke-width:1.9231627;stroke-linecap:round;stroke-linejoin:round;stroke-miterlimit:4;stroke-dasharray:none;stroke-opacity:1" />
    <path
       style="fill:#ffffff;fill-opacity:1;stroke:none;stroke-width:2.11666656;stroke-linecap:round;stroke-linejoin:round;stroke-miterlimit:4;stroke-dasharray:none;stroke-opacity:1"
       d="m 6.35,286.7102 a 2.8199191,2.8199191 0 0 0 -2.8199828,2.81998 2.8199191,2.8199191 0 0 0 1.144633,2.26395 v 0.34881 c 0,0.20117 0.16212,0.36277 0.3632853,0.36277 h 2.624129 c 0.2011654,0 0.3632854,-0.1616 0.3632854,-0.36277 v -0.34881 A 2.8199191,2.8199191 0 0 0 9.1699829,289.53018 2.8199191,2.8199191 0 0 0 6.35,286.7102 Z m 0,0.74517 a 2.0745046,2.0745046 0 0 1 2.074292,2.07481 2.0745046,2.0745046 0 0 1 -1.0536824,1.80299 v 0.41962 c 0,0.0866 -0.06945,0.15606 -0.1560629,0.15606 H 5.4854533 c -0.086613,0 -0.1560628,-0.0694 -0.1560628,-0.15606 v -0.41807 A 2.0745046,2.0745046 0 0 1 4.275708,289.53018 2.0745046,2.0745046 0 0 1 6.35,287.45537 Z"
       id="path4521"
       inkscape:connector-curvature="0" />
    <path
       inkscape:connector-curvature="0"
       id="rect4523-5"
       d="m 4.9844509,293.41612 h 2.7310992 c 0.171555,0 0.3096661,0.13811 0.3096661,0.30966 0,0.17156 -0.1381111,0.30967 -0.3096661,0.30967 H 4.9844509 c -0.171555,0 -0.3096661,-0.13811 -0.3096661,-0.30967 0,-0.17155 0.1381111,-0.30966 0.3096661,-0.30966 z"
       style="fill:#ffffff;fill-opacity:1;stroke:none;stroke-width:1.9231627;stroke-linecap:round;stroke-linejoin:round;stroke-miterlimit:4;stroke-dasharray:none;stroke-opacity:1" />
    <path
       inkscape:connector-curvature="0"
       id="rect4523-5-9"
       d="m 5.3748836,294.16831 h 1.9502333 c 0.1095001,0 0.1976536,0.0882 0.1976536,0.19766 v 0.0264 c 0,0.1095 -0.088153,0.19766 -0.1976536,0.19766 H 5.3748836 c -0.1095001,0 -0.1976536,-0.0882 -0.1976536,-0.19766 v -0.0264 c 0,-0.1095 0.088153,-0.19766 0.1976536,-0.19766 z"
       style="fill:#ffffff;fill-opacity:1;stroke:none;stroke-width:2.11666656;stroke-linecap:round;stroke-linejoin:round;stroke-miterlimit:4;stroke-dasharray:none;stroke-opacity:1" />
    <path
       inkscape:connector-curvature="0"
       id="rect4523-5-4"
       d="m 4.9844509,292.63798 h 2.7310992 c 0.171555,0 0.3096661,0.13811 0.3096661,0.30967 0,0.17155 -0.1381111,0.30966 -0.3096661,0.30966 H 4.9844509 c -0.171555,0 -0.3096661,-0.13811 -0.3096661,-0.30966 0,-0.17156 0.1381111,-0.30967 0.3096661,-0.30967 z"
       style="fill:#ffffff;fill-opacity:1;stroke:none;stroke-width:1.9231627;stroke-linecap:round;stroke-linejoin:round;stroke-miterlimit:4;stroke-dasharray:none;stroke-opacity:1" />
  </g>
</svg>
